<?xml version="1.0" encoding="UTF-8" standalone="no"?>
<!-- Created with Inkscape (http://www.inkscape.org/) -->

<svg
   xmlns:dc="http://purl.org/dc/elements/1.1/"
   xmlns:cc="http://creativecommons.org/ns#"
   xmlns:rdf="http://www.w3.org/1999/02/22-rdf-syntax-ns#"
   xmlns:svg="http://www.w3.org/2000/svg"
   xmlns="http://www.w3.org/2000/svg"
   xmlns:sodipodi="http://sodipodi.sourceforge.net/DTD/sodipodi-0.dtd"
   xmlns:inkscape="http://www.inkscape.org/namespaces/inkscape"
   width="48"
   height="48"
   viewBox="0 0 48 48"
   id="svg2"
   version="1.1"
   inkscape:version="0.91 r13725"
   sodipodi:docname="audio-headset.svg"
   inkscape:export-filename="/home/peter/Documenten/shades2.png"
   inkscape:export-xdpi="360"
   inkscape:export-ydpi="360">
  <defs
     id="defs4">
    <filter
       style="color-interpolation-filters:sRGB"
       inkscape:label="Drop Shadow"
       id="filter4630">
      <feFlood
         flood-opacity="1"
         flood-color="rgb(0,0,0)"
         result="flood"
         id="feFlood4632" />
      <feComposite
         in="flood"
         in2="SourceGraphic"
         operator="in"
         result="composite1"
         id="feComposite4634" />
      <feGaussianBlur
         in="composite1"
         stdDeviation="0.5"
         result="blur"
         id="feGaussianBlur4636" />
      <feOffset
         dx="0"
         dy="0.5"
         result="offset"
         id="feOffset4638" />
      <feComposite
         in="SourceGraphic"
         in2="offset"
         operator="over"
         result="composite2"
         id="feComposite4640" />
    </filter>
  </defs>
  <sodipodi:namedview
     id="base"
     pagecolor="#565656"
     bordercolor="#666666"
     borderopacity="1.0"
     inkscape:pageopacity="0"
     inkscape:pageshadow="2"
     inkscape:zoom="11.313709"
     inkscape:cx="25.455567"
     inkscape:cy="21.068436"
     inkscape:document-units="px"
     inkscape:current-layer="layer1"
     showgrid="true"
     units="px"
     inkscape:window-width="1366"
     inkscape:window-height="704"
     inkscape:window-x="0"
     inkscape:window-y="32"
     inkscape:window-maximized="1"
     inkscape:showpageshadow="false"
     showguides="false">
    <inkscape:grid
       type="xygrid"
       id="grid4140" />
  </sodipodi:namedview>
  <metadata
     id="metadata7">
    <rdf:RDF>
      <cc:Work
         rdf:about="">
        <dc:format>image/svg+xml</dc:format>
        <dc:type
           rdf:resource="http://purl.org/dc/dcmitype/StillImage" />
        <dc:title />
      </cc:Work>
    </rdf:RDF>
  </metadata>
  <g
     inkscape:label="Laag 1"
     inkscape:groupmode="layer"
     id="layer1"
     transform="translate(0,-1004.3622)">
    <path
       id="path4256"
       d="m 24,1007.3622 a 18,18 0 0 0 -18,18 l 3,0 a 15,15 0 0 1 15,-15 15,15 0 0 1 15,15 l 3,0 a 18,18 0 0 0 -18,-18 z"
       style="opacity:1;fill:#0097a7;fill-opacity:1;stroke:none;stroke-width:1.66600001;stroke-linecap:round;stroke-linejoin:round;stroke-miterlimit:4;stroke-dasharray:none;stroke-opacity:1"
       inkscape:connector-curvature="0" />
    <path
       style="opacity:1;fill:#545555;fill-opacity:1;stroke:none;stroke-width:1.66600001;stroke-linecap:round;stroke-linejoin:round;stroke-miterlimit:4;stroke-dasharray:none;stroke-opacity:1"
       d="m 24,1006.3622 a 20,20 0 0 0 -20,20 l 2,0 a 18,18 0 0 1 18,-18 18,18 0 0 1 18,18 l 2,0 a 20,20 0 0 0 -20,-20 z"
       id="path4150"
       inkscape:connector-curvature="0" />
    <path
       style="opacity:1;fill:#1793d0;fill-opacity:1;stroke:none;stroke-width:1.66600001;stroke-linecap:round;stroke-linejoin:round;stroke-miterlimit:4;stroke-dasharray:none;stroke-opacity:1"
       d="M 24 4 A 18 18 0 0 0 6 22 L 9 22 A 15 15 0 0 1 24 7 A 15 15 0 0 1 39 22 L 42 22 A 18 18 0 0 0 24 4 z "
       transform="translate(0,1004.3622)"
       id="path4157" />
    <rect
       style="opacity:1;fill:#545553;fill-opacity:1;stroke:none;stroke-width:1.66600001;stroke-linecap:round;stroke-linejoin:round;stroke-miterlimit:4;stroke-dasharray:none;stroke-opacity:1"
       id="rect4168"
       width="2"
       height="11"
       x="4"
       y="1025.3622"
       rx="1"
       ry="1" />
    <rect
       ry="1"
       rx="1"
       y="1025.3622"
       x="42"
       height="11"
       width="2"
       id="rect4170"
       style="opacity:1;fill:#545553;fill-opacity:1;stroke:none;stroke-width:1.66600001;stroke-linecap:round;stroke-linejoin:round;stroke-miterlimit:4;stroke-dasharray:none;stroke-opacity:1" />
    <rect
       ry="1.00002"
       rx="1"
       y="1031.3622"
       x="32"
       height="15"
       width="6"
       id="rect4194"
       style="opacity:1;fill:#1793d0;fill-opacity:1;stroke:none;stroke-width:1.66600001;stroke-linecap:round;stroke-linejoin:round;stroke-miterlimit:4;stroke-dasharray:none;stroke-opacity:1" />
    <path
       style="opacity:1;fill:#545553;fill-opacity:1;stroke:none;stroke-width:1.66600001;stroke-linecap:round;stroke-linejoin:round;stroke-miterlimit:4;stroke-dasharray:none;stroke-opacity:1"
       d="M 36 26 C 35.446 26 35 26.44599 35 27 L 35 42 C 35 42.55401 35.446 43 36 43 L 37 43 L 39 43 L 40 43 C 41.108 43 42 39.209 42 34.5 C 42 29.791 41.108 26 40 26 L 39 26 L 37 26 L 36 26 z "
       transform="translate(0,1004.3622)"
       id="rect4172" />
    <rect
       ry="1"
       rx="1"
       y="1029.3622"
       x="4"
       height="11"
       width="2"
       id="rect4176"
       style="opacity:1;fill:#545553;fill-opacity:1;stroke:none;stroke-width:1.66600001;stroke-linecap:round;stroke-linejoin:round;stroke-miterlimit:4;stroke-dasharray:none;stroke-opacity:1" />
    <rect
       style="opacity:1;fill:#545553;fill-opacity:1;stroke:none;stroke-width:1.66600001;stroke-linecap:round;stroke-linejoin:round;stroke-miterlimit:4;stroke-dasharray:none;stroke-opacity:1"
       id="rect4178"
       width="2"
       height="11"
       x="42"
       y="1029.3622"
       rx="1"
       ry="1" />
    <rect
       style="opacity:1;fill:#1793d0;fill-opacity:1;stroke:none;stroke-width:1.66600001;stroke-linecap:round;stroke-linejoin:round;stroke-miterlimit:4;stroke-dasharray:none;stroke-opacity:1"
       id="rect4192"
       width="6"
       height="15"
       x="10"
       y="1031.3622"
       rx="1"
       ry="1.00002" />
    <path
       id="path4184"
       d="m 12,1030.3622 c 0.554,0 1,0.446 1,1 l 0,15 c 0,0.554 -0.446,1 -1,1 l -1,0 -2,0 -1,0 c -1.108,0 -2,-3.791 -2,-8.5 0,-4.709 0.892,-8.5 2,-8.5 l 1,0 2,0 1,0 z"
       style="opacity:1;fill:#545553;fill-opacity:1;stroke:none;stroke-width:1.66600001;stroke-linecap:round;stroke-linejoin:round;stroke-miterlimit:4;stroke-dasharray:none;stroke-opacity:1"
       inkscape:connector-curvature="0" />
    <path
       style="opacity:1;fill:#ffffff;fill-opacity:0.2;stroke:none;stroke-width:1.66600001;stroke-linecap:round;stroke-linejoin:round;stroke-miterlimit:4;stroke-dasharray:none;stroke-opacity:1"
       d="m 24,1006.3622 a 20,20 0 0 0 -20,20 l 0.03516,0 a 20,20 0 0 1 19.964844,-19 20,20 0 0 1 19.949219,19 l 0.05078,0 a 20,20 0 0 0 -20,-20 z"
       id="path4240"
       inkscape:connector-curvature="0" />
    <path
       style="opacity:1;fill:#ffffff;fill-opacity:0.2;stroke:none;stroke-width:1.66600001;stroke-linecap:round;stroke-linejoin:round;stroke-miterlimit:4;stroke-dasharray:none;stroke-opacity:1"
       d="M 8 26 C 6.892 26 6 29.791 6 34.5 C 6 34.671429 6.009387 34.831143 6.0117188 35 C 6.073437 30.530504 6.9323363 27 8 27 L 9 27 L 11 27 L 12 27 C 12.554 27 13 27.446 13 28 L 13 27 C 13 26.446 12.554 26 12 26 L 11 26 L 9 26 L 8 26 z "
       transform="translate(0,1004.3622)"
       id="path4245" />
    <path
       id="path4250"
       d="m 8,1047.3622 c -1.108,0 -2,-3.791 -2,-8.5 0,-0.1714 0.00939,-0.3311 0.011719,-0.5 0.061718,4.4695 0.9206175,8 1.9882812,8 l 1,0 1.9999998,0 1,0 c 0.554,0 1,-0.446 1,-1 l 0,1 c 0,0.554 -0.446,1 -1,1 l -1,0 -1.9999998,0 -1,0 z"
       style="opacity:1;fill:#000000;fill-opacity:0.2;stroke:none;stroke-width:1.66600001;stroke-linecap:round;stroke-linejoin:round;stroke-miterlimit:4;stroke-dasharray:none;stroke-opacity:1"
       inkscape:connector-curvature="0" />
    <path
       id="path4252"
       d="m 40.000001,1030.3622 c 1.108,0 2,3.791 2,8.5 0,0.1714 -0.0094,0.3311 -0.01172,0.5 -0.06172,-4.4695 -0.920618,-8 -1.988281,-8 l -1,0 -2,0 -1,0 c -0.554,0 -1,0.446 -1,1 l 0,-1 c 0,-0.554 0.446,-1 1,-1 l 1,0 2,0 1,0 z"
       style="opacity:1;fill:#ffffff;fill-opacity:0.2;stroke:none;stroke-width:1.66600001;stroke-linecap:round;stroke-linejoin:round;stroke-miterlimit:4;stroke-dasharray:none;stroke-opacity:1"
       inkscape:connector-curvature="0" />
    <path
       inkscape:connector-curvature="0"
       style="opacity:1;fill:#000000;fill-opacity:0.2;stroke:none;stroke-width:1.66600001;stroke-linecap:round;stroke-linejoin:round;stroke-miterlimit:4;stroke-dasharray:none;stroke-opacity:1"
       d="m 40.000001,1047.3622 c 1.108,0 2,-3.791 2,-8.5 0,-0.1714 -0.0094,-0.3311 -0.01172,-0.5 -0.06172,4.4695 -0.920618,8 -1.988281,8 l -1,0 -2,0 -1,0 c -0.554,0 -1,-0.446 -1,-1 l 0,1 c 0,0.554 0.446,1 1,1 l 1,0 2,0 1,0 z"
       id="path4254" />
    <path
       style="opacity:1;fill:#545553;fill-opacity:1;stroke:none;stroke-width:1.66600001;stroke-linecap:round;stroke-linejoin:round;stroke-miterlimit:4;stroke-dasharray:none;stroke-opacity:1"
       d="M 42 34 L 42 35 A 7 7 0 0 1 35 42 L 28 42 C 28 41.445989 27.554 41 27 41 L 23 41 C 22.446 41 22 41.445989 22 42 L 22 44 C 22 44.554011 22.446 45 23 45 L 27 45 C 27.554 45 28 44.554011 28 44 L 35 44 A 9 9 0 0 0 44 35 A 9 9 0 0 0 43.939453 34 L 42 34 z "
       transform="translate(0,1004.3622)"
       id="path4260" />
  </g>
</svg>
