<?xml version="1.0" encoding="UTF-8" standalone="no"?>
<!-- Created with Inkscape (http://www.inkscape.org/) -->

<svg
   xmlns:dc="http://purl.org/dc/elements/1.1/"
   xmlns:cc="http://creativecommons.org/ns#"
   xmlns:rdf="http://www.w3.org/1999/02/22-rdf-syntax-ns#"
   xmlns:svg="http://www.w3.org/2000/svg"
   xmlns="http://www.w3.org/2000/svg"
   xmlns:sodipodi="http://sodipodi.sourceforge.net/DTD/sodipodi-0.dtd"
   xmlns:inkscape="http://www.inkscape.org/namespaces/inkscape"
   width="48"
   height="48"
   viewBox="0 0 48 48.000001"
   id="svg4172"
   version="1.1"
   inkscape:version="0.91 r13725"
   sodipodi:docname="camera-video.svg"
   inkscape:export-filename="/home/peter/Bureaublad/camera.png"
   inkscape:export-xdpi="45"
   inkscape:export-ydpi="45">
  <defs
     id="defs4174" />
  <sodipodi:namedview
     id="base"
     pagecolor="#ffffff"
     bordercolor="#666666"
     borderopacity="1.0"
     inkscape:pageopacity="0.0"
     inkscape:pageshadow="2"
     inkscape:zoom="10.431848"
     inkscape:cx="23.999938"
     inkscape:cy="24.000009"
     inkscape:document-units="px"
     inkscape:current-layer="layer1"
     showgrid="true"
     units="px"
     inkscape:window-width="959"
     inkscape:window-height="704"
     inkscape:window-x="407"
     inkscape:window-y="32"
     inkscape:window-maximized="0">
    <inkscape:grid
       type="xygrid"
       id="grid4720" />
  </sodipodi:namedview>
  <metadata
     id="metadata4177">
    <rdf:RDF>
      <cc:Work
         rdf:about="">
        <dc:format>image/svg+xml</dc:format>
        <dc:type
           rdf:resource="http://purl.org/dc/dcmitype/StillImage" />
        <dc:title />
      </cc:Work>
    </rdf:RDF>
  </metadata>
  <g
     inkscape:label="Laag 1"
     inkscape:groupmode="layer"
     id="layer1"
     transform="translate(0,-1004.3622)">
    <path
       style="opacity:1;fill:#3b414b;fill-opacity:1;stroke:none;stroke-width:2;stroke-linecap:round;stroke-linejoin:round;stroke-miterlimit:4;stroke-dasharray:none;stroke-opacity:1"
       d="m 35.578,1007.3622 a 25,27.5 0 0 1 8.921875,21 25,27.5 0 0 1 -6.980469,19 l 1.541016,0 a 25,27.5 0 0 0 6.939453,-19 25,27.5 0 0 0 -8.898438,-21 l -1.523437,0 z"
       id="path4194"
       inkscape:connector-curvature="0" />
    <rect
       style="opacity:1;fill:#b3bac3;fill-opacity:1;stroke:none;stroke-width:2;stroke-linecap:round;stroke-linejoin:round;stroke-miterlimit:4;stroke-dasharray:none;stroke-opacity:1"
       id="rect4172"
       width="18"
       height="44"
       x="23"
       y="1006.3622"
       rx="3.0000174"
       ry="3.0000174" />
    <circle
       style="opacity:1;fill:#1793d0;fill-opacity:0.94117647;stroke:none;stroke-width:2;stroke-linecap:round;stroke-linejoin:round;stroke-miterlimit:4;stroke-dasharray:none;stroke-opacity:1"
       id="path4735"
       cx="32"
       cy="1019.3622"
       r="5.5" />
    <path
       style="opacity:1;fill:#edeff1;fill-opacity:1;stroke:none;stroke-width:2;stroke-linecap:round;stroke-linejoin:round;stroke-miterlimit:4;stroke-dasharray:none;stroke-opacity:1"
       d="m 32,1012.3622 a 7,7 0 0 0 -7,7 7,7 0 0 0 7,7 7,7 0 0 0 7,-7 7,7 0 0 0 -7,-7 z m 0,1.5 a 5.5,5.5 0 0 1 5.5,5.5 5.5,5.5 0 0 1 -5.5,5.5 5.5,5.5 0 0 1 -5.5,-5.5 5.5,5.5 0 0 1 5.5,-5.5 z"
       id="circle4739"
       inkscape:connector-curvature="0" />
    <circle
       style="opacity:1;fill:#ffffff;fill-opacity:0.2;stroke:none;stroke-width:2;stroke-linecap:round;stroke-linejoin:round;stroke-miterlimit:4;stroke-dasharray:none;stroke-opacity:1"
       id="path4737"
       cx="32"
       cy="1019.3622"
       r="3.75" />
    <path
       style="opacity:1;fill:#ffffff;fill-opacity:0.2;stroke:none;stroke-width:2;stroke-linecap:round;stroke-linejoin:round;stroke-miterlimit:4;stroke-dasharray:none;stroke-opacity:1"
       d="m 32,1012.3622 a 7,7 0 0 0 -7,7 7,7 0 0 0 0.01074,0.2071 7,7 0 0 1 6.98926,-6.7071 7,7 0 0 1 6.989258,6.793 7,7 0 0 0 0.01074,-0.293 7,7 0 0 0 -7,-7 z m 5.489258,7.2071 A 5.5,5.5 0 0 1 32,1024.8622 a 5.5,5.5 0 0 1 -5.489258,-5.207 5.5,5.5 0 0 0 -0.01074,0.207 5.5,5.5 0 0 0 5.5,5.5 5.5,5.5 0 0 0 5.5,-5.5 5.5,5.5 0 0 0 -0.01074,-0.2929 z"
       id="path4751"
       inkscape:connector-curvature="0" />
    <path
       id="path4756"
       d="m 32,1026.3622 a 7,7 0 0 1 -7,-7 7,7 0 0 1 0.01074,-0.207 7,7 0 0 0 6.98926,6.707 7,7 0 0 0 6.989258,-6.7929 7,7 0 0 1 0.01074,0.2929 7,7 0 0 1 -7,7 z m 5.489258,-7.207 A 5.5,5.5 0 0 0 32,1013.8622 a 5.5,5.5 0 0 0 -5.489258,5.2071 5.5,5.5 0 0 1 -0.01074,-0.2071 5.5,5.5 0 0 1 5.5,-5.5 5.5,5.5 0 0 1 5.5,5.5 5.5,5.5 0 0 1 -0.01074,0.293 z"
       style="opacity:1;fill:#000000;fill-opacity:0.2;stroke:none;stroke-width:2;stroke-linecap:round;stroke-linejoin:round;stroke-miterlimit:4;stroke-dasharray:none;stroke-opacity:1"
       inkscape:connector-curvature="0" />
    <path
       style="opacity:1;fill:#ffffff;fill-opacity:0.4;stroke:none;stroke-width:2;stroke-linecap:round;stroke-linejoin:round;stroke-miterlimit:4;stroke-dasharray:none;stroke-opacity:1"
       d="m 29.348374,1022.0139 a 3.75,3.75 0 0 0 5.3033,0 l -5.3033,-5.3034 a 3.75,3.75 0 0 0 0,5.3034 z"
       id="circle4758"
       inkscape:connector-curvature="0" />
    <path
       inkscape:connector-curvature="0"
       id="path4763"
       d="m 34.6533,1022.0139 a 3.75,3.75 0 0 1 -5.3033,0 l 5.3033,-5.3034 a 3.75,3.75 0 0 1 0,5.3034 z"
       style="opacity:1;fill:#ffffff;fill-opacity:0.5;stroke:none;stroke-width:2;stroke-linecap:round;stroke-linejoin:round;stroke-miterlimit:4;stroke-dasharray:none;stroke-opacity:1" />
    <rect
       style="opacity:1;fill:#b3bac3;fill-opacity:1;stroke:none;stroke-width:2;stroke-linecap:round;stroke-linejoin:round;stroke-miterlimit:4;stroke-dasharray:none;stroke-opacity:1"
       id="rect4174"
       width="20"
       height="18"
       x="2"
       y="1016.3622"
       rx="3"
       ry="3.00002" />
    <path
       style="opacity:1;fill:#ffffff;fill-opacity:0.2;stroke:none;stroke-width:2;stroke-linecap:round;stroke-linejoin:round;stroke-miterlimit:4;stroke-dasharray:none;stroke-opacity:1"
       d="m 26,1006.3622 c -1.66201,0 -3,1.338 -3,3 l 0,1 c 0,-1.662 1.33799,-3 3,-3 l 12,0 c 1.66201,0 3,1.338 3,3 l 0,-1 c 0,-1.662 -1.33799,-3 -3,-3 l -12,0 z"
       id="rect4176"
       inkscape:connector-curvature="0" />
    <path
       id="path4181"
       d="m 26,1050.3622 c -1.66201,0 -3,-1.338 -3,-3 l 0,-1 c 0,1.662 1.33799,3 3,3 l 12,0 c 1.66201,0 3,-1.338 3,-3 l 0,1 c 0,1.662 -1.33799,3 -3,3 l -12,0 z"
       style="opacity:1;fill:#000000;fill-opacity:0.2;stroke:none;stroke-width:2;stroke-linecap:round;stroke-linejoin:round;stroke-miterlimit:4;stroke-dasharray:none;stroke-opacity:1"
       inkscape:connector-curvature="0" />
    <path
       style="opacity:1;fill:#ffffff;fill-opacity:0.2;stroke:none;stroke-width:2;stroke-linecap:round;stroke-linejoin:round;stroke-miterlimit:4;stroke-dasharray:none;stroke-opacity:1"
       d="m 5,1016.3622 c -1.662,0 -3,1.338 -3,3 l 0,1 c 0,-1.662 1.338,-3 3,-3 l 14,0 c 1.662,0 3,1.338 3,3 l 0,-1 c 0,-1.662 -1.338,-3 -3,-3 l -14,0 z"
       id="rect4183"
       inkscape:connector-curvature="0" />
    <path
       id="path4188"
       d="m 5,1034.3622 c -1.662,0 -3,-1.338 -3,-3 l 0,-1 c 0,1.662 1.338,3 3,3 l 14,0 c 1.662,0 3,-1.338 3,-3 l 0,1 c 0,1.662 -1.338,3 -3,3 l -14,0 z"
       style="opacity:1;fill:#000000;fill-opacity:0.2;stroke:none;stroke-width:2;stroke-linecap:round;stroke-linejoin:round;stroke-miterlimit:4;stroke-dasharray:none;stroke-opacity:1"
       inkscape:connector-curvature="0" />
    <circle
       r="1.5"
       cy="1046.3622"
       cx="37"
       id="circle4192"
       style="opacity:1;fill:#000000;fill-opacity:0.2;stroke:none;stroke-width:2;stroke-linecap:round;stroke-linejoin:round;stroke-miterlimit:4;stroke-dasharray:none;stroke-opacity:1" />
    <circle
       style="opacity:1;fill:#ad1457;fill-opacity:1;stroke:none;stroke-width:2;stroke-linecap:round;stroke-linejoin:round;stroke-miterlimit:4;stroke-dasharray:none;stroke-opacity:1"
       id="path4190"
       cx="36.5"
       cy="1045.8622"
       r="1.5" />
    <rect
       style="opacity:1;fill:#3b414b;fill-opacity:1;stroke:none;stroke-width:2;stroke-linecap:round;stroke-linejoin:round;stroke-miterlimit:4;stroke-dasharray:none;stroke-opacity:1"
       id="rect4205"
       width="1"
       height="10"
       x="22"
       y="1020.3622" />
    <path
       style="opacity:1;fill:#ffffff;fill-opacity:0.2;stroke:none;stroke-width:2;stroke-linecap:round;stroke-linejoin:round;stroke-miterlimit:4;stroke-dasharray:none;stroke-opacity:1"
       d="M 22 16 L 22 17 L 23 17 L 23 16 L 22 16 z "
       transform="translate(0,1004.3622)"
       id="rect4207" />
    <path
       id="path4212"
       d="m 22,1029.3622 0,1 1,0 0,-1 -1,0 z"
       style="opacity:1;fill:#000000;fill-opacity:0.2;stroke:none;stroke-width:2;stroke-linecap:round;stroke-linejoin:round;stroke-miterlimit:4;stroke-dasharray:none;stroke-opacity:1"
       inkscape:connector-curvature="0" />
  </g>
</svg>
