<?xml version="1.0" encoding="UTF-8" standalone="no"?>
<!-- Created with Inkscape (http://www.inkscape.org/) -->

<svg
   xmlns:dc="http://purl.org/dc/elements/1.1/"
   xmlns:cc="http://creativecommons.org/ns#"
   xmlns:rdf="http://www.w3.org/1999/02/22-rdf-syntax-ns#"
   xmlns:svg="http://www.w3.org/2000/svg"
   xmlns="http://www.w3.org/2000/svg"
   xmlns:sodipodi="http://sodipodi.sourceforge.net/DTD/sodipodi-0.dtd"
   xmlns:inkscape="http://www.inkscape.org/namespaces/inkscape"
   width="48"
   height="48"
   viewBox="0 0 48 48"
   id="svg2"
   version="1.1"
   inkscape:version="0.91 r13725"
   sodipodi:docname="input-mouse.svg"
   inkscape:export-filename="/home/poltertec/Downloads/journal.png"
   inkscape:export-xdpi="360"
   inkscape:export-ydpi="360">
  <defs
     id="defs4">
    <filter
       style="color-interpolation-filters:sRGB"
       inkscape:label="Drop Shadow"
       id="filter4630">
      <feFlood
         flood-opacity="1"
         flood-color="rgb(0,0,0)"
         result="flood"
         id="feFlood4632" />
      <feComposite
         in="flood"
         in2="SourceGraphic"
         operator="in"
         result="composite1"
         id="feComposite4634" />
      <feGaussianBlur
         in="composite1"
         stdDeviation="0.5"
         result="blur"
         id="feGaussianBlur4636" />
      <feOffset
         dx="0"
         dy="0.5"
         result="offset"
         id="feOffset4638" />
      <feComposite
         in="SourceGraphic"
         in2="offset"
         operator="over"
         result="composite2"
         id="feComposite4640" />
    </filter>
  </defs>
  <sodipodi:namedview
     id="base"
     pagecolor="#ffffff"
     bordercolor="#666666"
     borderopacity="1.0"
     inkscape:pageopacity="0"
     inkscape:pageshadow="2"
     inkscape:zoom="5.9441165"
     inkscape:cx="-33.092677"
     inkscape:cy="48.347596"
     inkscape:document-units="px"
     inkscape:current-layer="layer1"
     showgrid="true"
     units="px"
     inkscape:window-width="1366"
     inkscape:window-height="704"
     inkscape:window-x="0"
     inkscape:window-y="32"
     inkscape:window-maximized="1"
     inkscape:showpageshadow="false"
     showguides="false">
    <inkscape:grid
       type="xygrid"
       id="grid4140" />
  </sodipodi:namedview>
  <metadata
     id="metadata7">
    <rdf:RDF>
      <cc:Work
         rdf:about="">
        <dc:format>image/svg+xml</dc:format>
        <dc:type
           rdf:resource="http://purl.org/dc/dcmitype/StillImage" />
        <dc:title />
      </cc:Work>
    </rdf:RDF>
  </metadata>
  <g
     inkscape:label="Laag 1"
     inkscape:groupmode="layer"
     id="layer1"
     transform="translate(0,-1004.3622)">
    <path
       style="fill:#212121;fill-opacity:1;stroke:none;stroke-width:0.40000001;stroke-miterlimit:4;stroke-dasharray:none;stroke-opacity:0.1"
       d="M 23 4 L 23 19 C 23 19.554 23.446 20 24 20 C 24.554 20 25 19.554 25 19 L 25 4 L 24 4 L 23 4 z "
       transform="translate(0,1004.3622)"
       id="rect4170" />
    <path
       style="fill:#545553;fill-opacity:1;stroke:none;stroke-width:0.40000001;stroke-miterlimit:4;stroke-dasharray:none;stroke-opacity:0.1"
       d="m 19,1008.3622 c -4.986,0 -9,3.568 -9,8 l 0,4 0,1 0,15 c 0,6.648 6.244,12 14,12 7.756,0 14,-5.352 14,-12 l 0,-15 0,-1 0,-4 c 0,-4.432 -4.014,-8 -9,-8 l -4,0 0,15 c 0,0.554 -0.446,1 -1,1 -0.554,0 -1,-0.446 -1,-1 l 0,-15 -4,0 z"
       id="path4153"
       inkscape:connector-curvature="0" />
    <rect
       style="fill:#d1d5db;fill-opacity:1;stroke:none;stroke-width:0.40000001;stroke-miterlimit:4;stroke-dasharray:none;stroke-opacity:0.1"
       id="rect4168"
       width="4"
       height="9"
       x="22"
       y="1012.3622"
       rx="1"
       ry="1" />
    <path
       style="fill:#000000;fill-opacity:0.20392157;stroke:none;stroke-width:0.40000001;stroke-miterlimit:4;stroke-dasharray:none;stroke-opacity:0.1"
       d="m 10,1035.3622 0,1 c 0,6.648 6.244,12 14,12 7.756,0 14,-5.352 14,-12 l 0,-1 c 0,6.648 -6.244,12 -14,12 -7.756,0 -14,-5.352 -14,-12 z"
       id="path4164"
       inkscape:connector-curvature="0" />
    <path
       style="fill:#ffffff;fill-opacity:0.2;stroke:none;stroke-width:2;stroke-linecap:round;stroke-linejoin:round;stroke-miterlimit:4;stroke-dasharray:none;stroke-opacity:1"
       d="M 19 4 C 14.014 4 10 7.568 10 12 L 10 13 C 10 8.568 14.014 5 19 5 L 19 4.9980469 L 23 4.9980469 L 23 4.0566406 L 23 4 L 19 4 z M 25 4 L 25 5 L 29 5 C 33.986 5 38 8.568 38 13 L 38 12 C 38 7.568 33.986 4 29 4 L 25 4 z "
       transform="translate(0,1004.3622)"
       id="path4169" />
  </g>
</svg>
