<?xml version="1.0" encoding="UTF-8" standalone="no"?>
<!-- Created with Inkscape (http://www.inkscape.org/) -->

<svg
   xmlns:dc="http://purl.org/dc/elements/1.1/"
   xmlns:cc="http://creativecommons.org/ns#"
   xmlns:rdf="http://www.w3.org/1999/02/22-rdf-syntax-ns#"
   xmlns:svg="http://www.w3.org/2000/svg"
   xmlns="http://www.w3.org/2000/svg"
   xmlns:sodipodi="http://sodipodi.sourceforge.net/DTD/sodipodi-0.dtd"
   xmlns:inkscape="http://www.inkscape.org/namespaces/inkscape"
   width="48"
   height="48"
   id="svg2"
   version="1.1"
   inkscape:version="0.91 r13725"
   sodipodi:docname="printer.svg"
   inkscape:export-filename="/home/afel/Pictures/evos-mockups/personal-app-icons/printers.png"
   inkscape:export-xdpi="360"
   inkscape:export-ydpi="360">
  <defs
     id="defs4" />
  <sodipodi:namedview
     id="base"
     pagecolor="#ffffff"
     bordercolor="#000000"
     borderopacity="1"
     inkscape:pageopacity="0.0"
     inkscape:pageshadow="2"
     inkscape:zoom="8"
     inkscape:cx="3.972059"
     inkscape:cy="14.920835"
     inkscape:document-units="px"
     inkscape:current-layer="layer1"
     showgrid="true"
     inkscape:showpageshadow="false"
     borderlayer="true"
     inkscape:window-width="959"
     inkscape:window-height="704"
     inkscape:window-x="407"
     inkscape:window-y="32"
     inkscape:window-maximized="0"
     inkscape:snap-bbox="true"
     inkscape:bbox-paths="true"
     inkscape:bbox-nodes="true"
     inkscape:snap-nodes="true"
     inkscape:object-paths="true"
     inkscape:snap-intersection-paths="true"
     inkscape:object-nodes="true"
     inkscape:snap-smooth-nodes="true"
     inkscape:snap-grids="false"
     inkscape:snap-bbox-edge-midpoints="false">
    <inkscape:grid
       type="xygrid"
       id="grid2985"
       empspacing="4"
       visible="true"
       enabled="true"
       snapvisiblegridlinesonly="true"
       dotted="false" />
  </sodipodi:namedview>
  <metadata
     id="metadata7">
    <rdf:RDF>
      <cc:Work
         rdf:about="">
        <dc:format>image/svg+xml</dc:format>
        <dc:type
           rdf:resource="http://purl.org/dc/dcmitype/StillImage" />
        <dc:title />
      </cc:Work>
    </rdf:RDF>
  </metadata>
  <g
     inkscape:label="Layer 1"
     inkscape:groupmode="layer"
     id="layer1"
     transform="translate(0,-1004.3622)">
    <path
       style="opacity:1;fill:#545553;fill-opacity:1;stroke:none;stroke-width:0.1;stroke-linecap:round;stroke-linejoin:round;stroke-miterlimit:4;stroke-dasharray:none;stroke-opacity:1"
       d="m 11,1008.3622 26,0 c 1.662,0 3,1.338 3,3 l 0,10 c 0,1.662 -1.338,3 -3,3 l -26,0 c -1.6619998,0 -2.9999998,-1.338 -2.9999998,-3 l 0,-10 c 0,-1.662 1.338,-3 2.9999998,-3 z"
       id="rect4143"
       inkscape:connector-curvature="0"
       sodipodi:nodetypes="sssssssss" />
    <path
       style="opacity:1;fill:#545553;fill-opacity:1;stroke:none;stroke-width:0.1;stroke-linecap:round;stroke-linejoin:round;stroke-miterlimit:4;stroke-dasharray:none;stroke-opacity:1"
       d="m 5,1012.3622 7,0 12,0 12,0 7,0 c 1.662,0 3,1.338 3,3 l 0,14 c 0,1.662 -1.338,3 -3,3 l -38,0 c -1.662,0 -3,-1.338 -3,-3 l 0,-14 c 0,-1.662 1.338,-3 3,-3 z"
       id="rect4141"
       inkscape:connector-curvature="0"
       sodipodi:nodetypes="scscssssssss" />
    <path
       style="opacity:1;fill:#000000;fill-opacity:0.2;stroke:none;stroke-width:0.1;stroke-linecap:round;stroke-linejoin:round;stroke-miterlimit:4;stroke-dasharray:none;stroke-opacity:1"
       d="m 5,1032.3622 38,0 c 1.662,0 3,-1.338 3,-3 0,1 -1.485116,2 -3,2 l -38,0 c -1.460488,0 -3,-1 -3,-2 0,1.662 1.338,3 3,3 z"
       id="rect4141-3-8"
       inkscape:connector-curvature="0"
       sodipodi:nodetypes="ssccscs" />
    <rect
       style="opacity:1;fill:#262a30;fill-opacity:1;stroke:none;stroke-width:0.1;stroke-linecap:round;stroke-linejoin:round;stroke-miterlimit:4;stroke-dasharray:none;stroke-opacity:1"
       id="rect4223"
       width="30"
       height="9.0000172"
       x="9"
       y="1029.3622"
       rx="1"
       ry="1" />
    <rect
       style="opacity:1;fill:#1a1a1a;fill-opacity:1;stroke:none;stroke-width:0.1;stroke-linecap:round;stroke-linejoin:round;stroke-miterlimit:4;stroke-dasharray:none;stroke-opacity:1"
       id="rect4145"
       width="32"
       height="4"
       x="8"
       y="1026.3622"
       rx="1"
       ry="1" />
    <path
       style="opacity:1;fill:#f5f0f0;fill-opacity:1;stroke:none;stroke-width:0.1;stroke-linecap:round;stroke-linejoin:round;stroke-miterlimit:4;stroke-dasharray:none;stroke-opacity:1"
       d="m 10,1027.3622 0,18 c 0,1.662 1.338,3 3,3 7.213015,0 15.126969,0 22,0 1.662,0 3,-1.338 3,-3 0,-6.0764 0,-12.6654 0,-18 z"
       id="rect4147"
       inkscape:connector-curvature="0"
       sodipodi:nodetypes="csccccc" />
    <path
       style="fill:#000000;fill-opacity:0.2;fill-rule:evenodd;stroke:none;stroke-width:1px;stroke-linecap:butt;stroke-linejoin:miter;stroke-opacity:1"
       d="m 10,1027.3622 0,1 28,0 0,-1 z"
       id="path4157"
       inkscape:connector-curvature="0" />
    <path
       style="opacity:1;fill:#ffffff;fill-opacity:0.2;stroke:none;stroke-width:0.1;stroke-linecap:round;stroke-linejoin:round;stroke-miterlimit:4;stroke-dasharray:none;stroke-opacity:1"
       d="m 5,1012.3622 38,0 c 1.662,0 3,1.338 3,3 0,-1 -1.485116,-2 -3,-2 l -38,0 c -1.460488,0 -3,1 -3,2 0,-1.662 1.338,-3 3,-3 z"
       id="rect4141-3"
       inkscape:connector-curvature="0"
       sodipodi:nodetypes="ssccscs" />
    <path
       style="opacity:1;fill:#ffffff;fill-opacity:0.2;stroke:none;stroke-width:0.1;stroke-linecap:round;stroke-linejoin:round;stroke-miterlimit:4;stroke-dasharray:none;stroke-opacity:1"
       d="m 11,1008.3622 26,0 c 1.662,0 3,1.338 3,3 0,-1 -1.513864,-2 -3,-2 l -26,0 c -1.4006338,0 -2.9999998,1 -2.9999998,2 0,-1.662 1.338,-3 2.9999998,-3 z"
       id="rect4143-1"
       inkscape:connector-curvature="0"
       sodipodi:nodetypes="sscsscs" />
    <circle
       style="opacity:1;fill:#edeff1;fill-opacity:1;stroke:none;stroke-width:0.1;stroke-linecap:round;stroke-linejoin:round;stroke-miterlimit:4;stroke-dasharray:none;stroke-opacity:1"
       id="path4159-2-1"
       cx="36.5"
       cy="1016.8622"
       r="1.5" />
    <circle
       style="opacity:1;fill:#ef5250;fill-opacity:1;stroke:none;stroke-width:0.1;stroke-linecap:round;stroke-linejoin:round;stroke-miterlimit:4;stroke-dasharray:none;stroke-opacity:1"
       id="path4159"
       cx="41.5"
       cy="1016.8622"
       r="1.5" />
    <rect
       style="opacity:1;fill:#545553;fill-opacity:1;stroke:none;stroke-width:0.1;stroke-linecap:round;stroke-linejoin:round;stroke-miterlimit:4;stroke-dasharray:none;stroke-opacity:1"
       id="rect4431"
       width="8"
       height="1"
       x="24"
       y="1030.3622"
       rx="0"
       ry="0" />
    <rect
       style="opacity:1;fill:#545553;fill-opacity:1;stroke:none;stroke-width:0.1;stroke-linecap:round;stroke-linejoin:round;stroke-miterlimit:4;stroke-dasharray:none;stroke-opacity:1"
       id="rect4431-3"
       width="8"
       height="1"
       x="24"
       y="1032.3622"
       rx="0"
       ry="0" />
    <rect
       style="opacity:1;fill:#545553;fill-opacity:1;stroke:none;stroke-width:0.1;stroke-linecap:round;stroke-linejoin:round;stroke-miterlimit:4;stroke-dasharray:none;stroke-opacity:1"
       id="rect4431-3-3"
       width="8"
       height="1"
       x="24"
       y="1034.3622"
       rx="0"
       ry="0" />
    <rect
       style="opacity:1;fill:#545553;fill-opacity:1;stroke:none;stroke-width:0.1;stroke-linecap:round;stroke-linejoin:round;stroke-miterlimit:4;stroke-dasharray:none;stroke-opacity:1"
       id="rect4431-3-3-5"
       width="16"
       height="1"
       x="16"
       y="1036.3622"
       rx="0"
       ry="0" />
    <rect
       style="opacity:1;fill:#545553;fill-opacity:1;stroke:none;stroke-width:0.1;stroke-linecap:round;stroke-linejoin:round;stroke-miterlimit:4;stroke-dasharray:none;stroke-opacity:1"
       id="rect4431-3-3-5-2"
       width="16"
       height="1"
       x="16"
       y="1038.3622"
       rx="0"
       ry="0" />
    <rect
       style="opacity:1;fill:#545553;fill-opacity:1;stroke:none;stroke-width:0.1;stroke-linecap:round;stroke-linejoin:round;stroke-miterlimit:4;stroke-dasharray:none;stroke-opacity:1"
       id="rect4431-3-3-5-2-5"
       width="10"
       height="1"
       x="16"
       y="1040.3622"
       rx="0"
       ry="0" />
    <rect
       style="opacity:1;fill:#545553;fill-opacity:1;stroke:none;stroke-width:0.1;stroke-linecap:round;stroke-linejoin:round;stroke-miterlimit:4;stroke-dasharray:none;stroke-opacity:1"
       id="rect4508"
       width="7"
       height="4.9999828"
       x="16"
       y="1030.3622" />
    <path
       style="opacity:1;fill:#000000;fill-opacity:0.2;stroke:none;stroke-width:0.1;stroke-linecap:round;stroke-linejoin:round;stroke-miterlimit:4;stroke-dasharray:none;stroke-opacity:1"
       d="m 10,1045.3622 c 0,1.662 1.338,3 3,3 l 22,0 c 1.662,0 3,-1.338 3,-3 0,1 -1.53125,2 -3,2 -6.011707,0 -22,0 -22,0 -1.491267,0 -3,-1 -3,-2 z"
       id="rect4147-8"
       inkscape:connector-curvature="0"
       sodipodi:nodetypes="ccccssc" />
  </g>
</svg>
