<?xml version="1.0" encoding="UTF-8" standalone="no"?>
<!-- Created with Inkscape (http://www.inkscape.org/) -->

<svg
   xmlns:dc="http://purl.org/dc/elements/1.1/"
   xmlns:cc="http://creativecommons.org/ns#"
   xmlns:rdf="http://www.w3.org/1999/02/22-rdf-syntax-ns#"
   xmlns:svg="http://www.w3.org/2000/svg"
   xmlns="http://www.w3.org/2000/svg"
   xmlns:sodipodi="http://sodipodi.sourceforge.net/DTD/sodipodi-0.dtd"
   xmlns:inkscape="http://www.inkscape.org/namespaces/inkscape"
   width="48"
   height="48"
   viewBox="0 0 48 48"
   id="svg2"
   version="1.1"
   inkscape:version="0.91 r13725"
   sodipodi:docname="video-display.svg"
   inkscape:export-filename="/home/poltertec/Downloads/testikel2.png"
   inkscape:export-xdpi="360"
   inkscape:export-ydpi="360">
  <defs
     id="defs4">
    <filter
       style="color-interpolation-filters:sRGB"
       inkscape:label="Drop Shadow"
       id="filter4630">
      <feFlood
         flood-opacity="1"
         flood-color="rgb(0,0,0)"
         result="flood"
         id="feFlood4632" />
      <feComposite
         in="flood"
         in2="SourceGraphic"
         operator="in"
         result="composite1"
         id="feComposite4634" />
      <feGaussianBlur
         in="composite1"
         stdDeviation="0.5"
         result="blur"
         id="feGaussianBlur4636" />
      <feOffset
         dx="0"
         dy="0.5"
         result="offset"
         id="feOffset4638" />
      <feComposite
         in="SourceGraphic"
         in2="offset"
         operator="over"
         result="composite2"
         id="feComposite4640" />
    </filter>
  </defs>
  <sodipodi:namedview
     id="base"
     pagecolor="#ffffff"
     bordercolor="#666666"
     borderopacity="1.0"
     inkscape:pageopacity="0"
     inkscape:pageshadow="2"
     inkscape:zoom="11.313709"
     inkscape:cx="21.833142"
     inkscape:cy="25.145591"
     inkscape:document-units="px"
     inkscape:current-layer="layer1"
     showgrid="true"
     units="px"
     inkscape:window-width="959"
     inkscape:window-height="704"
     inkscape:window-x="407"
     inkscape:window-y="32"
     inkscape:window-maximized="0"
     inkscape:showpageshadow="false"
     showguides="false">
    <inkscape:grid
       type="xygrid"
       id="grid4140" />
  </sodipodi:namedview>
  <metadata
     id="metadata7">
    <rdf:RDF>
      <cc:Work
         rdf:about="">
        <dc:format>image/svg+xml</dc:format>
        <dc:type
           rdf:resource="http://purl.org/dc/dcmitype/StillImage" />
        <dc:title />
      </cc:Work>
    </rdf:RDF>
  </metadata>
  <g
     inkscape:label="Laag 1"
     inkscape:groupmode="layer"
     id="layer1"
     transform="translate(0,-1004.3622)">
    <path
       style="fill:#545553;fill-opacity:1"
       d="m 6,1008.3622 c -2.21,0 -4,1.79 -4,4 l 0,24 c 0,2.21 1.79,4 4,4 l 14,0 0,4 -4,0 0,4 16,0 0,-4 -4,0 0,-4 14,0 c 2.21,0 4,-1.79 4,-4 l 0,-24 c 0,-2.21 -1.79,-4 -4,-4 l -36,0 z"
       id="path4"
       inkscape:connector-curvature="0" />
    <path
       d="m 20,1040.3622 0,4 -4,0 0,4 16,0 0,-4 -4,0 0,-4 -8,0 z"
       id="path4180"
       style="fill:#545553;fill-opacity:1"
       inkscape:connector-curvature="0" />
    <rect
       style="fill:#1793d0;fill-opacity:1;stroke:none;stroke-width:0.40000001;stroke-miterlimit:4;stroke-dasharray:none;stroke-opacity:0.1"
       id="rect4185"
       width="36"
       height="24"
       x="6"
       y="1012.3622" />
    <path
       style="fill:#ffffff;fill-opacity:0.2;stroke:none;stroke-opacity:1"
       d="M 6 4 C 3.79 4 2 5.79 2 8 L 2 9 C 2 6.79 3.79 5 6 5 L 42 5 C 44.21 5 46 6.79 46 9 L 46 8 C 46 5.79 44.21 4 42 4 L 6 4 z M 16 40 L 16 41 L 20 41 L 20 40 L 16 40 z M 28 40 L 28 41 L 32 41 L 32 40 L 28 40 z "
       transform="translate(0,1004.3622)"
       id="path4190" />
    <path
       style="fill:#000000;fill-opacity:0.2"
       d="m 2,1035.3622 0,1 c 0,2.21 1.79,4 4,4 l 22,0 0,-1 -22,0 c -2.21,0 -4,-1.79 -4,-4 z m 44,0 c 0,2.21 -1.79,4 -4,4 l -14,0 0,1 14,0 c 2.21,0 4,-1.79 4,-4 z m -30,12 0,1 16,0 0,-1 z"
       id="path4195"
       inkscape:connector-curvature="0"
       sodipodi:nodetypes="cssccsccsccsscccccc" />
  </g>
</svg>
