<?xml version="1.0" encoding="UTF-8" standalone="no"?>
<!-- Created with Inkscape (http://www.inkscape.org/) -->

<svg
   xmlns:dc="http://purl.org/dc/elements/1.1/"
   xmlns:cc="http://creativecommons.org/ns#"
   xmlns:rdf="http://www.w3.org/1999/02/22-rdf-syntax-ns#"
   xmlns:svg="http://www.w3.org/2000/svg"
   xmlns="http://www.w3.org/2000/svg"
   xmlns:xlink="http://www.w3.org/1999/xlink"
   xmlns:sodipodi="http://sodipodi.sourceforge.net/DTD/sodipodi-0.dtd"
   xmlns:inkscape="http://www.inkscape.org/namespaces/inkscape"
   width="48"
   height="48"
   viewBox="0 0 48 48"
   id="svg4162"
   version="1.1"
   inkscape:version="0.91 r13725"
   sodipodi:docname="concept-1.svg">
  <defs
     id="defs4164">
    <linearGradient
       gradientUnits="userSpaceOnUse"
       y2="1016.3622"
       x2="46"
       y1="1016.3622"
       x1="44"
       id="linearGradient4214"
       xlink:href="#linearGradient4200"
       gradientTransform="matrix(0.99941701,0,0,1,0.01400187,1.000097)" />
    <linearGradient
       id="linearGradient4200">
      <stop
         style="stop-color:#000000;stop-opacity:0.40000001"
         offset="0"
         id="stop4202" />
      <stop
         style="stop-color:#000000;stop-opacity:0;"
         offset="1"
         id="stop4204" />
    </linearGradient>
    <linearGradient
       gradientTransform="matrix(0.99940951,0,0,1,0.00118187,1004.3622)"
       gradientUnits="userSpaceOnUse"
       y2="38"
       x2="34"
       y1="7"
       x1="3"
       id="linearGradient4211"
       xlink:href="#linearGradient4165" />
    <linearGradient
       id="linearGradient4165">
      <stop
         id="stop4167"
         offset="0"
         style="stop-color:#ffffff;stop-opacity:0.25" />
      <stop
         id="stop4169"
         offset="1"
         style="stop-color:#177ed5;stop-opacity:0;" />
    </linearGradient>
    <linearGradient
       inkscape:collect="always"
       xlink:href="#linearGradient4165"
       id="linearGradient4331"
       gradientUnits="userSpaceOnUse"
       gradientTransform="matrix(-0.91608996,0,0,0.91895824,48.450632,1009.127)"
       x1="3"
       y1="7"
       x2="34"
       y2="38" />
    <linearGradient
       inkscape:collect="always"
       xlink:href="#linearGradient4165"
       id="linearGradient4335"
       gradientUnits="userSpaceOnUse"
       gradientTransform="matrix(0.91608996,0,0,0.91895824,-1.5216883,1009.127)"
       x1="3"
       y1="7"
       x2="34"
       y2="38" />
  </defs>
  <sodipodi:namedview
     id="base"
     pagecolor="#ffffff"
     bordercolor="#666666"
     borderopacity="1.0"
     inkscape:pageopacity="0.0"
     inkscape:pageshadow="2"
     inkscape:zoom="5.6568542"
     inkscape:cx="27.319044"
     inkscape:cy="23.327783"
     inkscape:document-units="px"
     inkscape:current-layer="layer1"
     showgrid="false"
     units="px"
     inkscape:window-width="1366"
     inkscape:window-height="704"
     inkscape:window-x="0"
     inkscape:window-y="32"
     inkscape:window-maximized="1" />
  <metadata
     id="metadata4167">
    <rdf:RDF>
      <cc:Work
         rdf:about="">
        <dc:format>image/svg+xml</dc:format>
        <dc:type
           rdf:resource="http://purl.org/dc/dcmitype/StillImage" />
        <dc:title></dc:title>
      </cc:Work>
    </rdf:RDF>
  </metadata>
  <g
     inkscape:label="Laag 1"
     inkscape:groupmode="layer"
     id="layer1"
     transform="translate(0,-1004.3622)">
    <g
       id="g4345"
       transform="matrix(1,0,0,-1,0,2054.0678)">
      <path
         inkscape:connector-curvature="0"
         id="path4347"
         d="m 42.826483,1014.8926 c 2.094512,0 3.780707,1.6819 3.780707,3.7714 l 0,0.8544 0,0.9873 0,0.043 0,0.043 0,1.3701 0,15.5018 0,2.4493 0,1.757 c 0,0.834 -0.764774,1.5062 -1.716825,1.5062 l -1.720517,0 -30.93239,0 -1.720515,0 c -0.9520521,0 -1.7168258,-0.6722 -1.7168258,-1.5062 l 0,-1.757 0,-15.5939 0,-1.5396 0,-0.3462 0,-0.4714 c 0,-1.6708 1.3148598,-3.0245 3.0164418,-3.2227 0.01796,0 0.03737,0 0.05539,0 0.229821,-0.043 0.466101,-0.07 0.708883,-0.07 l 1.890353,0 c 0.108814,0 0.211096,0.024 0.317522,0.034 l 16.695656,-0.04 3.780708,-3.7714 5.67106,0 0.516894,0 1.37346,0 z"
         style="fill:#1793d0;fill-opacity:1;stroke:none;stroke-width:2.27600002;stroke-linecap:round;stroke-linejoin:round;stroke-miterlimit:4;stroke-dasharray:none;stroke-opacity:1" />
      <path
         style="fill:#1793d0;fill-opacity:1;stroke:none;stroke-width:2.27600002;stroke-linecap:round;stroke-linejoin:round;stroke-miterlimit:4;stroke-dasharray:none;stroke-opacity:1"
         d="m 5.0190641,1014.8926 c -2.0945116,0 -3.7807071,1.6819 -3.7807071,3.7714 l 0,0.8544 0,0.9873 0,0.043 0,0.043 0,1.3701 0,15.5018 0,2.4493 0,1.757 c 0,0.834 0.764774,1.5062 1.716825,1.5062 l 1.7205171,0 30.9323899,0 1.720515,0 c 0.952052,0 1.716826,-0.6722 1.716826,-1.5062 l 0,-1.757 0,-15.5939 0,-1.5396 0,-0.3462 0,-0.4714 c 0,-1.6708 -1.31486,-3.0245 -3.016442,-3.2227 -0.01796,0 -0.03737,0 -0.05539,0 -0.229821,-0.043 -0.466101,-0.07 -0.708883,-0.07 l -1.890353,0 c -0.108814,0 -0.211096,0.024 -0.317522,0.034 l -16.695656,-0.04 -3.780708,-3.7714 -5.6710599,0 -0.5168939,0 -1.37346,0 z"
         id="path4349"
         inkscape:connector-curvature="0" />
    </g>
    <rect
       style="opacity:1;fill:#ffffff;fill-opacity:1;stroke:none;stroke-width:1;stroke-miterlimit:4;stroke-dasharray:none;stroke-opacity:1"
       id="rect4351"
       width="40.128311"
       height="4.7729707"
       x="3.8890874"
       y="1013.1282" />
    <g
       id="g4337"
       transform="translate(0,2)">
      <path
         inkscape:connector-curvature="0"
         id="path4329"
         d="m 42.463741,1013.721 c 2.215898,0 3.999817,1.784 3.999817,4.0002 l 0,0.9062 0,1.0472 0,0.046 0,0.046 0,1.4532 0,16.4422 0,2.5978 0,1.8636 c 0,0.8846 -0.809097,1.5976 -1.816324,1.5976 l -1.820229,0 -32.725068,0 -1.820227,0 c -1.0072283,0 -1.8163243,-0.713 -1.8163243,-1.5976 l 0,-1.8636 0,-16.5398 0,-1.633 0,-0.3672 0,-0.5 c 0,-1.7722 1.391062,-3.208 3.1912593,-3.4182 0.019,0 0.03954,0 0.0586,0 0.24314,-0.046 0.493114,-0.074 0.749966,-0.074 l 1.999908,0 c 0.11512,0 0.22333,0.026 0.335924,0.036 l 17.663248,-0.042 3.999818,-4.0002 6.546575,0 1.027297,0 0.425762,0 z"
         style="fill:url(#linearGradient4331);fill-opacity:1;stroke:none;stroke-width:2.27600002;stroke-linecap:round;stroke-linejoin:round;stroke-miterlimit:4;stroke-dasharray:none;stroke-opacity:1" />
      <path
         style="fill:url(#linearGradient4335);fill-opacity:1;stroke:none;stroke-width:2.27600002;stroke-linecap:round;stroke-linejoin:round;stroke-miterlimit:4;stroke-dasharray:none;stroke-opacity:1"
         d="m 4.465203,1013.721 c -2.2158983,0 -3.9998173,1.784 -3.9998173,4.0002 l 0,0.9062 0,1.0472 0,0.046 0,0.046 0,1.4532 0,16.4422 0,2.5978 0,1.8636 c 0,0.8846 0.809097,1.5976 1.816324,1.5976 l 1.8202293,0 32.725068,0 1.820227,0 c 1.007228,0 1.816324,-0.713 1.816324,-1.5976 l 0,-1.8636 0,-16.5398 0,-1.633 0,-0.3672 0,-0.5 c 0,-1.7722 -1.391062,-3.208 -3.191259,-3.4182 -0.019,0 -0.03954,0 -0.0586,0 -0.24314,-0.046 -0.493114,-0.074 -0.749966,-0.074 l -1.999908,0 c -0.11512,0 -0.22333,0.026 -0.335924,0.036 l -17.663248,-0.042 -3.999818,-4.0002 -6.546575,0 -1.027297,0 -0.425762,0 z"
         id="path4333"
         inkscape:connector-curvature="0" />
    </g>
    <g
       id="g4341">
      <path
         style="fill:#1793d0;fill-opacity:1;stroke:none;stroke-width:2.27600002;stroke-linecap:round;stroke-linejoin:round;stroke-miterlimit:4;stroke-dasharray:none;stroke-opacity:1"
         d="m 42.826483,1014.8926 c 2.094512,0 3.780707,1.6819 3.780707,3.7714 l 0,0.8544 0,0.9873 0,0.043 0,0.043 0,1.3701 0,15.5018 0,2.4493 0,1.757 c 0,0.834 -0.764774,1.5062 -1.716825,1.5062 l -1.720517,0 -30.93239,0 -1.720515,0 c -0.9520521,0 -1.7168258,-0.6722 -1.7168258,-1.5062 l 0,-1.757 0,-15.5939 0,-1.5396 0,-0.3462 0,-0.4714 c 0,-1.6708 1.3148598,-3.0245 3.0164418,-3.2227 0.01796,0 0.03737,0 0.05539,0 0.229821,-0.043 0.466101,-0.07 0.708883,-0.07 l 1.890353,0 c 0.108814,0 0.211096,0.024 0.317522,0.034 l 16.695656,-0.04 3.780708,-3.7714 5.67106,0 0.516894,0 1.37346,0 z"
         id="path4319"
         inkscape:connector-curvature="0" />
      <path
         inkscape:connector-curvature="0"
         id="rect4197"
         d="m 5.0190641,1014.8926 c -2.0945116,0 -3.7807071,1.6819 -3.7807071,3.7714 l 0,0.8544 0,0.9873 0,0.043 0,0.043 0,1.3701 0,15.5018 0,2.4493 0,1.757 c 0,0.834 0.764774,1.5062 1.716825,1.5062 l 1.7205171,0 30.9323899,0 1.720515,0 c 0.952052,0 1.716826,-0.6722 1.716826,-1.5062 l 0,-1.757 0,-15.5939 0,-1.5396 0,-0.3462 0,-0.4714 c 0,-1.6708 -1.31486,-3.0245 -3.016442,-3.2227 -0.01796,0 -0.03737,0 -0.05539,0 -0.229821,-0.043 -0.466101,-0.07 -0.708883,-0.07 l -1.890353,0 c -0.108814,0 -0.211096,0.024 -0.317522,0.034 l -16.695656,-0.04 -3.780708,-3.7714 -5.6710599,0 -0.5168939,0 -1.37346,0 z"
         style="fill:#1793d0;fill-opacity:1;stroke:none;stroke-width:2.27600002;stroke-linecap:round;stroke-linejoin:round;stroke-miterlimit:4;stroke-dasharray:none;stroke-opacity:1" />
    </g>
    <path
       inkscape:connector-curvature="0"
       style="fill:#ffffff;fill-opacity:1;fill-rule:evenodd;stroke:none;stroke-width:0.81381053;stroke-linecap:round;stroke-linejoin:round;stroke-miterlimit:10;stroke-dasharray:none;stroke-opacity:1"
       d="m 23.511337,1022.9638 c -0.637356,1.4518 -1.022222,2.4029 -1.731834,3.8115 0.435083,0.4287 0.969099,0.9252 1.836382,1.4888 -0.932415,-0.3565 -1.567893,-0.7119 -2.043201,-1.0834 -0.90817,1.761 -2.333103,4.2664 -5.220503,9.0868 2.268992,-1.2172 4.028996,-1.9666 5.668233,-2.253 -0.07034,-0.2814 -0.109536,-0.5866 -0.106819,-0.9039 l 0.0022,-0.066 c 0.03601,-1.3509 0.792695,-2.3915 1.688653,-2.3208 0.895959,0.071 1.592841,1.2253 1.556833,2.5761 -0.0068,0.2542 -0.03704,0.4978 -0.09091,0.7245 1.621078,0.295 3.362348,1.0422 5.600051,2.2425 -0.441427,-0.755 -0.837382,-1.4337 -1.213649,-2.0822 -0.59268,-0.4267 -1.209474,-0.9821 -2.470476,-1.5836 0.866741,0.2092 1.489022,0.4502 1.972747,0.7201 -3.825607,-6.6179 -4.135892,-7.4975 -5.447778,-10.358 z"
       id="path6557" />
  </g>
</svg>
