<?xml version="1.0" encoding="UTF-8" standalone="no"?>
<!-- Created with Inkscape (http://www.inkscape.org/) -->

<svg
   xmlns:dc="http://purl.org/dc/elements/1.1/"
   xmlns:cc="http://creativecommons.org/ns#"
   xmlns:rdf="http://www.w3.org/1999/02/22-rdf-syntax-ns#"
   xmlns:svg="http://www.w3.org/2000/svg"
   xmlns="http://www.w3.org/2000/svg"
   xmlns:sodipodi="http://sodipodi.sourceforge.net/DTD/sodipodi-0.dtd"
   xmlns:inkscape="http://www.inkscape.org/namespaces/inkscape"
   width="48"
   height="48"
   id="svg2"
   version="1.1"
   inkscape:version="0.91 r13725"
   sodipodi:docname="folder-videos.svg">
  <defs
     id="defs4">
    <linearGradient
       id="linearGradient3768">
      <stop
         style="stop-color:#ffb74d;stop-opacity:1;"
         offset="0"
         id="stop3770" />
      <stop
         style="stop-color:#ffbf61;stop-opacity:1;"
         offset="1"
         id="stop3772" />
    </linearGradient>
    <linearGradient
       id="linearGradient3819">
      <stop
         style="stop-color:#000000;stop-opacity:1;"
         offset="0"
         id="stop3821" />
      <stop
         style="stop-color:#ffffff;stop-opacity:1;"
         offset="1"
         id="stop3823" />
    </linearGradient>
  </defs>
  <sodipodi:namedview
     id="base"
     pagecolor="#ffffff"
     bordercolor="#666666"
     borderopacity="1.0"
     inkscape:pageopacity="0.0"
     inkscape:pageshadow="2"
     inkscape:zoom="10.108768"
     inkscape:cx="11.351988"
     inkscape:cy="23.309353"
     inkscape:document-units="px"
     inkscape:current-layer="layer1"
     showgrid="true"
     inkscape:snap-bbox="true"
     inkscape:window-width="1366"
     inkscape:window-height="704"
     inkscape:window-x="0"
     inkscape:window-y="32"
     inkscape:window-maximized="1"
     inkscape:object-nodes="true"
     inkscape:snap-nodes="false"
     showguides="true"
     inkscape:guide-bbox="true"
     inkscape:snap-global="true">
    <inkscape:grid
       type="xygrid"
       id="grid3005"
       empspacing="6"
       visible="true"
       enabled="true"
       snapvisiblegridlinesonly="true" />
  </sodipodi:namedview>
  <metadata
     id="metadata7">
    <rdf:RDF>
      <cc:Work
         rdf:about="">
        <dc:format>image/svg+xml</dc:format>
        <dc:type
           rdf:resource="http://purl.org/dc/dcmitype/StillImage" />
        <dc:title></dc:title>
      </cc:Work>
    </rdf:RDF>
  </metadata>
  <g
     inkscape:label="Layer 1"
     inkscape:groupmode="layer"
     id="layer1"
     transform="translate(0,-1004.3622)">
    <g
       id="g5475">
      <path
         inkscape:connector-curvature="0"
         id="path3797"
         d="m 24,1008.3622 c -24,0 -24,0 -24,20 l 48,0 c 0,-20 0,-20 -24,-20 z"
         style="fill:#1276a6;fill-opacity:1;stroke:none" />
      <path
         inkscape:connector-curvature="0"
         style="opacity:0.20000000000000001;fill:#ffffff;fill-opacity:1;stroke:none"
         d="m 24,1051.1116 c -21.2715315,0 -23.66257505,-0.089 -23.9375,-15.4063 0.328125,14.4033 2.9375,14.4063 23.9375,14.4063 21,0 23.609375,0 23.9375,-14.4063 -0.274925,15.3174 -2.665968,15.4063 -23.9375,15.4063 z"
         id="path3788" />
      <rect
         y="1010.3622"
         x="18"
         height="6.9999828"
         width="26"
         id="rect3804"
         style="fill:#ffffff;fill-opacity:1;stroke:none" />
      <path
         sodipodi:nodetypes="cccccc"
         inkscape:connector-curvature="0"
         id="path3757"
         d="M 18.069225,1006.3784 C 0,1006.5415 0,1008.3483 0,1028.3622 c 0,22 0,22 24,22 24,0 24,0 24,-22 0,-16 0,-16 -24,-16 -4,0 -2,-6 -5.930775,-5.9838 z"
         style="fill:#1793d0;fill-opacity:1;stroke:none" />
    </g>
    <path
       style="fill:#ffffff;fill-opacity:1"
       id="path4152"
       d="m 19.651076,1023.6482 c -0.966875,0 -1.75,0.7831 -1.75,1.75 l 0,10.5 c 0,0.9669 0.783125,1.75 1.75,1.75 l 10.5,0 c 0.966875,0 1.75,-0.7831 1.75,-1.75 l 0,-10.5 c 0,-0.9669 -0.783125,-1.75 -1.75,-1.75 l -10.5,0 z m 3.5,3.0625 5.25,3.9375 -5.25,3.9375 0,-7.875 z"
       inkscape:connector-curvature="0" />
  </g>
</svg>
