<?xml version="1.0" encoding="UTF-8" standalone="no"?>
<!-- Created with Inkscape (http://www.inkscape.org/) -->

<svg
   xmlns:dc="http://purl.org/dc/elements/1.1/"
   xmlns:cc="http://creativecommons.org/ns#"
   xmlns:rdf="http://www.w3.org/1999/02/22-rdf-syntax-ns#"
   xmlns:svg="http://www.w3.org/2000/svg"
   xmlns="http://www.w3.org/2000/svg"
   xmlns:xlink="http://www.w3.org/1999/xlink"
   xmlns:sodipodi="http://sodipodi.sourceforge.net/DTD/sodipodi-0.dtd"
   xmlns:inkscape="http://www.inkscape.org/namespaces/inkscape"
   width="48"
   height="48"
   id="svg2"
   version="1.1"
   inkscape:version="0.91 r13725"
   sodipodi:docname="user-desktop.svg">
  <defs
     id="defs4">
    <linearGradient
       id="linearGradient3792">
      <stop
         style="stop-color:#ffffff;stop-opacity:1;"
         offset="0"
         id="stop3794" />
      <stop
         style="stop-color:#f2f2f2;stop-opacity:1;"
         offset="1"
         id="stop3796" />
    </linearGradient>
    <linearGradient
       id="linearGradient3780">
      <stop
         style="stop-color:#039be5;stop-opacity:1;"
         offset="0"
         id="stop3782" />
      <stop
         style="stop-color:#3cbdfc;stop-opacity:1;"
         offset="1"
         id="stop3784" />
    </linearGradient>
    <linearGradient
       id="linearGradient3763">
      <stop
         style="stop-color:#000000;stop-opacity:1;"
         offset="0"
         id="stop3765" />
      <stop
         style="stop-color:#ffffff;stop-opacity:1;"
         offset="1"
         id="stop3767" />
    </linearGradient>
    <linearGradient
       inkscape:collect="always"
       xlink:href="#linearGradient3792"
       id="linearGradient3798"
       x1="13.87153"
       y1="1027.8622"
       x2="34.12847"
       y2="1027.8622"
       gradientUnits="userSpaceOnUse" />
    <linearGradient
       gradientTransform="matrix(0,-1,1,0,-1.5e-6,47.999998)"
       gradientUnits="userSpaceOnUse"
       x2="47"
       x1="1"
       id="linearGradient3764">
      <stop
         id="stop3012"
         stop-opacity="1"
         stop-color="#1791d1" />
      <stop
         id="stop3014"
         stop-opacity="1"
         stop-color="#19a0e3"
         offset="1" />
    </linearGradient>
    <linearGradient
       inkscape:collect="always"
       xlink:href="#linearGradient3764"
       id="linearGradient3126"
       gradientUnits="userSpaceOnUse"
       gradientTransform="matrix(0,-1,1,0,-1.5e-6,47.999998)"
       x1="1"
       x2="47" />
    <linearGradient
       inkscape:collect="always"
       xlink:href="#linearGradient3764"
       id="linearGradient3129"
       gradientUnits="userSpaceOnUse"
       gradientTransform="matrix(0,-1,1,0,-60.998001,1058.3622)"
       x1="1"
       x2="47" />
  </defs>
  <sodipodi:namedview
     id="base"
     pagecolor="#ffffff"
     bordercolor="#666666"
     borderopacity="1.0"
     inkscape:pageopacity="0.0"
     inkscape:pageshadow="2"
     inkscape:zoom="8.1906533"
     inkscape:cx="7.272437"
     inkscape:cy="16.381493"
     inkscape:document-units="px"
     inkscape:current-layer="layer1"
     showgrid="true"
     inkscape:snap-bbox="true"
     inkscape:window-width="1366"
     inkscape:window-height="704"
     inkscape:window-x="0"
     inkscape:window-y="32"
     inkscape:window-maximized="1"
     inkscape:object-nodes="false"
     inkscape:snap-nodes="true">
    <inkscape:grid
       type="xygrid"
       id="grid3005"
       empspacing="6"
       visible="true"
       enabled="true"
       snapvisiblegridlinesonly="true" />
  </sodipodi:namedview>
  <metadata
     id="metadata7">
    <rdf:RDF>
      <cc:Work
         rdf:about="">
        <dc:format>image/svg+xml</dc:format>
        <dc:type
           rdf:resource="http://purl.org/dc/dcmitype/StillImage" />
        <dc:title></dc:title>
      </cc:Work>
    </rdf:RDF>
  </metadata>
  <g
     inkscape:label="Layer 1"
     inkscape:groupmode="layer"
     id="layer1"
     transform="translate(0,-1004.3622)">
    <path
       id="path3788"
       d="m 24,1051.1116 c -21.2715315,0 -23.66257505,-0.089 -23.9375,-15.4063 0.328125,14.4033 2.9375,14.4063 23.9375,14.4063 21,0 23.609375,0 23.9375,-14.4063 -0.274925,15.3174 -2.665968,15.4063 -23.9375,15.4063 z"
       style="opacity:0.20000000000000001;fill:#ffffff;fill-opacity:1;stroke:none"
       inkscape:connector-curvature="0" />
    <path
       style="fill:#1793d0;fill-opacity:1;stroke:none"
       d="m 24,1006.3622 c -24,0 -24,0 -24,22 0,22 0,22 24,22 24,0 24,0 24,-22 0,-22 0,-22 -24,-22 z"
       id="path3757"
       inkscape:connector-curvature="0"
       sodipodi:nodetypes="zzzzz" />
    <path
       style="opacity:0.2;fill:#000000;fill-opacity:1;stroke:none"
       d="m 24,1006.3622 c -21.2715315,0 -23.66257505,0.089 -23.9375,15.4063 C 0.390625,1007.3651 3,1007.3622 24,1007.3622 c 21,0 23.609375,0 23.9375,14.4063 C 47.662575,1006.451 45.271532,1006.3622 24,1006.3622 Z"
       id="path3770"
       inkscape:connector-curvature="0" />
    <g
       id="g3037"
       transform="translate(-46.998,1004.3622)" />
    <g
       id="g3808"
       transform="translate(-52.998,1013.3622)" />
    <g
       id="g3795"
       style="stroke-width:2;stroke-miterlimit:4;stroke-dasharray:none" />
    <g
       style="opacity:1;fill:#ffffff;fill-opacity:1;enable-background:new"
       id="g4113"
       transform="translate(15.901187,1020.7399)">
      <path
         sodipodi:nodetypes="sscsccccsccccccc"
         d="M 3.9999999,4 4.0002,9 c 4e-5,1 1,1 1,1 l 3.9997999,0 c 1,0 1,-1 1,-1 l -2.002e-4,-4 -2,-2 -2.9995998,0 c 0,0 -1.0002401,0 -1.0002,1 z m 1,0 2,0 0,2 2,0 0,3 L 5.0002,9 Z"
         id="path8"
         inkscape:connector-curvature="0"
         style="fill:#ffffff;fill-opacity:1" />
      <path
         sodipodi:nodetypes="ccccccccc"
         inkscape:connector-curvature="0"
         id="path3838"
         d="m 6,13 -2,2 c -1,1 -1,1 0,1 l 8,0 c 1,0 1,0 0,-1 l -2,-2 0,-1 -4,0 z"
         style="fill:#ffffff;fill-opacity:1;stroke:none" />
      <path
         id="rect3831"
         d="M 2,0 C 0.892,0 0,0.892 0,2 l 0,9 c 0,1.108 0.892,2 2,2 l 12,0 c 1.108,0 2,-0.892 2,-2 L 16,2 C 16,0.892 15.108,0 14,0 L 2,0 Z m 0,2 12,0 0,9 -12,0 0,-9 z"
         style="fill:#ffffff;fill-opacity:1;stroke:none"
         inkscape:connector-curvature="0" />
    </g>
  </g>
</svg>
